<svg width="28" height="28" viewBox="0 0 28 28" fill="none" xmlns="http://www.w3.org/2000/svg">
<path d="M8.40008 0.666504H19.6001C23.8668 0.666504 27.3334 4.13317 27.3334 8.39984V19.5998C27.3334 21.6508 26.5187 23.6178 25.0684 25.0681C23.6181 26.5184 21.6511 27.3332 19.6001 27.3332H8.40008C4.13341 27.3332 0.666748 23.8665 0.666748 19.5998V8.39984C0.666748 6.34883 1.48151 4.38183 2.93179 2.93155C4.38207 1.48126 6.34907 0.666504 8.40008 0.666504ZM8.13341 3.33317C6.86038 3.33317 5.63948 3.83888 4.7393 4.73906C3.83913 5.63923 3.33341 6.86013 3.33341 8.13317V19.8665C3.33341 22.5198 5.48008 24.6665 8.13341 24.6665H19.8667C21.1398 24.6665 22.3607 24.1608 23.2609 23.2606C24.161 22.3604 24.6667 21.1395 24.6667 19.8665V8.13317C24.6667 5.47984 22.5201 3.33317 19.8667 3.33317H8.13341ZM21.0001 5.33317C21.4421 5.33317 21.866 5.50877 22.1786 5.82133C22.4912 6.13389 22.6667 6.55781 22.6667 6.99984C22.6667 7.44186 22.4912 7.86579 22.1786 8.17835C21.866 8.49091 21.4421 8.6665 21.0001 8.6665C20.5581 8.6665 20.1341 8.49091 19.8216 8.17835C19.509 7.86579 19.3334 7.44186 19.3334 6.99984C19.3334 6.55781 19.509 6.13389 19.8216 5.82133C20.1341 5.50877 20.5581 5.33317 21.0001 5.33317ZM14.0001 7.33317C15.7682 7.33317 17.4639 8.03555 18.7141 9.28579C19.9644 10.536 20.6667 12.2317 20.6667 13.9998C20.6667 15.7679 19.9644 17.4636 18.7141 18.7139C17.4639 19.9641 15.7682 20.6665 14.0001 20.6665C12.232 20.6665 10.5363 19.9641 9.28604 18.7139C8.03579 17.4636 7.33342 15.7679 7.33342 13.9998C7.33342 12.2317 8.03579 10.536 9.28604 9.28579C10.5363 8.03555 12.232 7.33317 14.0001 7.33317ZM14.0001 9.99984C12.9392 9.99984 11.9218 10.4213 11.1717 11.1714C10.4215 11.9216 10.0001 12.939 10.0001 13.9998C10.0001 15.0607 10.4215 16.0781 11.1717 16.8283C11.9218 17.5784 12.9392 17.9998 14.0001 17.9998C15.0609 17.9998 16.0784 17.5784 16.8285 16.8283C17.5787 16.0781 18.0001 15.0607 18.0001 13.9998C18.0001 12.939 17.5787 11.9216 16.8285 11.1714C16.0784 10.4213 15.0609 9.99984 14.0001 9.99984Z" fill="white"/>
</svg>
