<svg width="28" height="28" viewBox="0 0 28 28" fill="none" xmlns="http://www.w3.org/2000/svg">
<path d="M21.8667 12.5332C17.6001 9.99984 10.4667 9.73317 6.40008 10.9998C5.73342 11.1998 5.06675 10.7998 4.86675 10.1998C4.66675 9.53317 5.06675 8.8665 5.66675 8.6665C10.4001 7.2665 18.2001 7.53317 23.1334 10.4665C23.7334 10.7998 23.9334 11.5998 23.6001 12.1998C23.2668 12.6665 22.4667 12.8665 21.8667 12.5332ZM21.7334 16.2665C21.4001 16.7332 20.8001 16.9332 20.3334 16.5998C16.7334 14.3998 11.2667 13.7332 7.06675 15.0665C6.53342 15.1998 5.93341 14.9332 5.80008 14.3998C5.66675 13.8665 5.93341 13.2665 6.46675 13.1332C11.3334 11.6665 17.3334 12.3998 21.4667 14.9332C21.8667 15.1332 22.0667 15.7998 21.7334 16.2665ZM20.1334 19.9332C19.8667 20.3332 19.4001 20.4665 19.0001 20.1998C15.8667 18.2665 11.9334 17.8665 7.26675 18.9332C6.80008 19.0665 6.40008 18.7332 6.26675 18.3332C6.13341 17.8665 6.46675 17.4665 6.86675 17.3332C11.9334 16.1998 16.3334 16.6665 19.8001 18.7998C20.2667 18.9998 20.3334 19.5332 20.1334 19.9332ZM14.0001 0.666504C12.2491 0.666504 10.5153 1.01138 8.89764 1.68144C7.27996 2.35151 5.81011 3.33363 4.57199 4.57175C2.07151 7.07223 0.666748 10.4636 0.666748 13.9998C0.666748 17.5361 2.07151 20.9274 4.57199 23.4279C5.81011 24.666 7.27996 25.6482 8.89764 26.3182C10.5153 26.9883 12.2491 27.3332 14.0001 27.3332C17.5363 27.3332 20.9277 25.9284 23.4282 23.4279C25.9287 20.9274 27.3334 17.5361 27.3334 13.9998C27.3334 12.2489 26.9885 10.5151 26.3185 8.89739C25.6484 7.27972 24.6663 5.80986 23.4282 4.57175C22.1901 3.33363 20.7202 2.35151 19.1025 1.68144C17.4849 1.01138 15.751 0.666504 14.0001 0.666504Z" fill="white"/>
</svg>
