<svg width="32" height="23" viewBox="0 0 32 23" fill="none" xmlns="http://www.w3.org/2000/svg">
<path d="M30.0533 4.56016C29.8867 3.93654 29.5596 3.36745 29.1046 2.90963C28.6496 2.4518 28.0825 2.12122 27.4599 1.95083C25.1733 1.3335 15.9999 1.3335 15.9999 1.3335C15.9999 1.3335 6.82659 1.3335 4.53992 1.95083C3.91733 2.12122 3.35027 2.4518 2.89525 2.90963C2.44023 3.36745 2.11314 3.93654 1.94659 4.56016C1.33325 6.86416 1.33325 11.6668 1.33325 11.6668C1.33325 11.6668 1.33325 16.4695 1.94659 18.7735C2.11294 19.3974 2.43993 19.9667 2.89497 20.4248C3.35 20.8829 3.91717 21.2137 4.53992 21.3842C6.82792 22.0002 15.9999 22.0002 15.9999 22.0002C15.9999 22.0002 25.1733 22.0002 27.4599 21.3842C28.0827 21.2137 28.6498 20.8829 29.1049 20.4248C29.5599 19.9667 29.8869 19.3974 30.0533 18.7735C30.6666 16.4722 30.6666 11.6668 30.6666 11.6668C30.6666 11.6668 30.6666 6.86416 30.0533 4.56016ZM12.9999 16.0282V7.30683L20.6666 11.6682L12.9999 16.0282Z" stroke="white" stroke-width="2" stroke-miterlimit="10" stroke-linejoin="round"/>
</svg>
